<?xml version="1.0" encoding="UTF-8"?>
<!DOCTYPE svg PUBLIC "-//W3C//DTD SVG 1.1//EN" "http://www.w3.org/Graphics/SVG/1.1/DTD/svg11.dtd">
<svg xmlns="http://www.w3.org/2000/svg" version="1.1" width="4000px" height="1500px" style="shape-rendering:geometricPrecision; text-rendering:geometricPrecision; image-rendering:optimizeQuality; fill-rule:evenodd; clip-rule:evenodd" xmlns:xlink="http://www.w3.org/1999/xlink">
<g><path style="opacity:0.985" fill="#af4041" d="M 1273.5,682.5 C 1298.61,680.949 1323.27,683.449 1347.5,690C 1353.15,691.491 1358.48,693.658 1363.5,696.5C 1352.83,719.833 1342.17,743.167 1331.5,766.5C 1330.67,766.833 1329.83,767.167 1329,767.5C 1309.55,761.264 1289.71,759.431 1269.5,762C 1250.24,765.38 1235.74,775.546 1226,792.5C 1219.08,805.774 1214.24,819.774 1211.5,834.5C 1247.5,835.167 1283.5,835.833 1319.5,836.5C 1313.02,861.081 1306.85,885.748 1301,910.5C 1265.23,911.164 1229.4,911.83 1193.5,912.5C 1176.61,984.732 1158.78,1056.73 1140,1128.5C 1129.69,1164.45 1115.02,1198.45 1096,1230.5C 1085.65,1247.18 1072.82,1261.68 1057.5,1274C 1029.73,1270.84 1002.06,1266.84 974.5,1262C 986.463,1250.88 996.63,1238.38 1005,1224.5C 1026.98,1187.58 1043.31,1148.25 1054,1106.5C 1078,1006.5 1102,906.5 1126,806.5C 1135.58,769.808 1154.41,738.975 1182.5,714C 1196.83,702.837 1212.83,694.837 1230.5,690C 1244.79,686.397 1259.12,683.897 1273.5,682.5 Z"/></g>
<g><path style="opacity:0.985" fill="#af4041" d="M 1479.5,682.5 C 1480.83,682.5 1482.17,682.5 1483.5,682.5C 1454.83,803.517 1426,924.517 1397,1045.5C 1396.33,1052.17 1396.33,1058.83 1397,1065.5C 1400.17,1075.33 1406.67,1081.83 1416.5,1085C 1423.05,1086.86 1429.72,1088.03 1436.5,1088.5C 1430.97,1113.6 1424.97,1138.6 1418.5,1163.5C 1387.54,1166.74 1358.87,1160.24 1332.5,1144C 1315.58,1130.66 1306.08,1113.16 1304,1091.5C 1302.56,1068.53 1304.56,1045.87 1310,1023.5C 1335.83,915.5 1361.67,807.5 1387.5,699.5C 1387.82,698.353 1388.48,697.519 1389.5,697C 1419.69,692.475 1449.69,687.642 1479.5,682.5 Z"/></g>
<g><path style="opacity:0.985" fill="#af4041" d="M 3164.5,682.5 C 3165.83,682.5 3167.17,682.5 3168.5,682.5C 3147,771.822 3125.84,861.155 3105,950.5C 3148.3,915.212 3189.13,877.045 3227.5,836C 3262.17,835.167 3296.84,835.333 3331.5,836.5C 3282.58,890.258 3230.58,940.758 3175.5,988C 3214.46,1039.41 3244.46,1095.91 3265.5,1157.5C 3231.17,1158.83 3196.83,1158.83 3162.5,1157.5C 3144.14,1107.89 3119.47,1061.89 3088.5,1019.5C 3076.66,1065.71 3065.32,1112.04 3054.5,1158.5C 3023.83,1158.5 2993.17,1158.5 2962.5,1158.5C 2998.97,1005.3 3035.64,852.134 3072.5,699C 3072.91,698.055 3073.57,697.388 3074.5,697C 3104.69,692.467 3134.69,687.634 3164.5,682.5 Z"/></g>
<g><path style="opacity:0.979" fill="#af4041" d="M 660.5,688.5 C 678.117,687.206 693.617,692.206 707,703.5C 716.597,715.891 719.93,729.891 717,745.5C 707.495,780.994 684.329,798.161 647.5,797C 615.127,791.951 600.961,773.118 605,740.5C 612.418,711.228 630.918,693.894 660.5,688.5 Z"/></g>
<g><path style="opacity:0.986" fill="#af4041" d="M 869.5,828.5 C 887.865,828.131 906.198,828.631 924.5,830C 983.369,838.708 1012.7,872.875 1012.5,932.5C 1012.58,942.907 1011.75,953.241 1010,963.5C 994.988,1028.55 979.821,1093.55 964.5,1158.5C 933.493,1158.83 902.493,1158.5 871.5,1157.5C 885.155,1101.21 898.655,1044.88 912,988.5C 915.644,973.468 918.144,958.301 919.5,943C 917.864,917.536 904.198,905.036 878.5,905.5C 866.724,906.009 855.058,907.342 843.5,909.5C 824.344,992.279 804.677,1074.95 784.5,1157.5C 753.841,1158.5 723.174,1158.83 692.5,1158.5C 716.705,1055.68 741.538,953.013 767,850.5C 800.278,838.479 834.444,831.146 869.5,828.5 Z"/></g>
<g><path style="opacity:0.987" fill="#af4041" d="M 2006.5,828.5 C 2021.5,828.333 2036.5,828.5 2051.5,829C 2076.92,830.854 2098.92,840.354 2117.5,857.5C 2142.06,842.049 2168.73,832.549 2197.5,829C 2288.41,823.241 2330.24,865.741 2323,956.5C 2322.1,964.572 2320.77,972.572 2319,980.5C 2304.83,1039.85 2290.66,1099.18 2276.5,1158.5C 2245.83,1158.5 2215.17,1158.5 2184.5,1158.5C 2199.49,1094.22 2214.32,1029.88 2229,965.5C 2233.08,947.66 2230.42,930.993 2221,915.5C 2212.69,908.499 2203.03,905.166 2192,905.5C 2176.17,906.553 2161.51,911.22 2148,919.5C 2149.11,936.913 2148.11,954.247 2145,971.5C 2130.48,1033.58 2115.65,1095.58 2100.5,1157.5C 2069.84,1158.5 2039.17,1158.83 2008.5,1158.5C 2021.81,1101.14 2035.31,1043.8 2049,986.5C 2052.19,974.19 2054.02,961.69 2054.5,949C 2055.18,937.204 2052.34,926.371 2046,916.5C 2037.13,908.482 2026.63,904.815 2014.5,905.5C 2008.82,905.868 2003.16,906.368 1997.5,907C 1992.76,907.412 1988.26,908.579 1984,910.5C 1964.33,992.833 1944.67,1075.17 1925,1157.5C 1894.23,1158.83 1863.4,1158.83 1832.5,1157.5C 1857.17,1055.14 1882.01,952.802 1907,850.5C 1939.22,838.357 1972.39,831.024 2006.5,828.5 Z"/></g>
<g><path style="opacity:0.987" fill="#af4041" d="M 2549.5,828.5 C 2588.49,826.865 2626.82,831.032 2664.5,841C 2671.24,843.136 2677.91,845.469 2684.5,848C 2687.87,849.346 2690.87,851.179 2693.5,853.5C 2677.56,916.913 2662.73,980.579 2649,1044.5C 2645.79,1081.46 2650.29,1117.46 2662.5,1152.5C 2635.47,1156.31 2608.47,1160.31 2581.5,1164.5C 2576.16,1155.15 2571.32,1145.48 2567,1135.5C 2526.9,1168.43 2482.4,1175.93 2433.5,1158C 2401.75,1142.4 2382.08,1117.23 2374.5,1082.5C 2359.38,1010.31 2375.55,946.315 2423,890.5C 2457.6,854.449 2499.77,833.782 2549.5,828.5 Z M 2551.5,904.5 C 2563.88,904.344 2576.22,905.01 2588.5,906.5C 2580.99,938.56 2573.15,970.56 2565,1002.5C 2560.58,1023.66 2557.25,1045 2555,1066.5C 2544.13,1078.02 2530.96,1085.52 2515.5,1089C 2488.3,1093.67 2471.13,1082.83 2464,1056.5C 2454.44,1006.21 2467.6,963.039 2503.5,927C 2517.41,914.878 2533.41,907.378 2551.5,904.5 Z"/></g>
<g><path style="opacity:0.985" fill="#af4041" d="M 2906.5,828.5 C 2928.83,828.185 2950.83,830.685 2972.5,836C 2976.51,837.113 2980.34,838.613 2984,840.5C 2983.98,843.57 2983.32,846.57 2982,849.5C 2973.66,871.011 2965.83,892.678 2958.5,914.5C 2947.78,912.655 2937.12,910.488 2926.5,908C 2905.31,905.295 2884.31,906.295 2863.5,911C 2842.5,993.17 2822.5,1075.67 2803.5,1158.5C 2772.5,1158.67 2741.5,1158.5 2710.5,1158C 2735.23,1056.59 2759.73,955.09 2784,853.5C 2823.67,838.867 2864.51,830.534 2906.5,828.5 Z"/></g>
<g><path style="opacity:0.985" fill="#af4041" d="M 595.5,835.5 C 626.167,835.5 656.833,835.5 687.5,835.5C 662.319,942.891 636.819,1050.22 611,1157.5C 580.574,1158.5 550.074,1158.83 519.5,1158.5C 544.578,1050.78 569.911,943.113 595.5,835.5 Z"/></g>
<g><path style="opacity:0.986" fill="#af4041" d="M 1543.5,835.5 C 1574.17,835.5 1604.83,835.5 1635.5,835.5C 1622.65,891.557 1609.49,947.557 1596,1003.5C 1590.72,1022.17 1588.39,1041.17 1589,1060.5C 1591.95,1079.62 1603.12,1089.29 1622.5,1089.5C 1642.53,1088.67 1659.36,1081 1673,1066.5C 1675.36,1045.35 1678.69,1024.35 1683,1003.5C 1696.49,947.557 1709.65,891.557 1722.5,835.5C 1753.51,835.167 1784.51,835.5 1815.5,836.5C 1798.07,906.216 1781.9,976.216 1767,1046.5C 1764.16,1082.76 1768.66,1118.09 1780.5,1152.5C 1753.47,1156.31 1726.47,1160.31 1699.5,1164.5C 1694.08,1155.25 1689.41,1145.59 1685.5,1135.5C 1646.66,1165.17 1603.66,1173.33 1556.5,1160C 1524.44,1147.59 1504.94,1124.42 1498,1090.5C 1494.05,1064.65 1495.05,1038.98 1501,1013.5C 1515.17,954.153 1529.34,894.819 1543.5,835.5 Z"/></g>
<g><path style="opacity:0.985" fill="#af4041" d="M 3401.5,840.5 C 3432.17,840.333 3462.84,840.5 3493.5,841C 3467.6,948.424 3441.94,1055.92 3416.5,1163.5C 3385.83,1163.5 3355.17,1163.5 3324.5,1163.5C 3349.69,1055.72 3375.36,948.055 3401.5,840.5 Z"/></g>
<g><path style="opacity:0.979" fill="#af4041" d="M 3348.5,1201.5 C 3365.5,1199.75 3380.83,1203.92 3394.5,1214C 3404.03,1223.07 3408.36,1234.24 3407.5,1247.5C 3406.28,1275.23 3392.95,1294.73 3367.5,1306C 3342.51,1314.79 3320.68,1309.96 3302,1291.5C 3289.85,1266.85 3292.52,1243.85 3310,1222.5C 3320.67,1211.42 3333.51,1204.42 3348.5,1201.5 Z"/></g>
</svg>
